<svg fill="#DE350B" xmlns="http://www.w3.org/2000/svg" width="1em" height="1em" viewBox="0 0 24 24" font-size="32px"><path d="M5 18a.967.967 0 0 1-.713-.288A.968.968 0 0 1 4 17a.97.97 0 0 1 .287-.712A.967.967 0 0 1 5 16h8a.97.97 0 0 1 .713.288c.191.191.287.429.287.712s-.096.52-.287.712A.968.968 0 0 1 13 18zm0-5a.967.967 0 0 1-.713-.287A.968.968 0 0 1 4 12c0-.283.096-.52.287-.713A.967.967 0 0 1 5 11h14a.97.97 0 0 1 .712.287c.192.192.288.43.288.713s-.096.52-.288.713A.968.968 0 0 1 19 13zm0-5a.968.968 0 0 1-.713-.287A.968.968 0 0 1 4 7c0-.283.096-.52.287-.713A.968.968 0 0 1 5 6h14a.97.97 0 0 1 .712.287c.192.192.288.43.288.713s-.096.52-.288.713A.968.968 0 0 1 19 8z"/></svg>