<svg fill="#F2B518" xmlns="http://www.w3.org/2000/svg" width="1em" height="1em" viewBox="0 0 24 24" font-size="32px"><path d="m10.55 18.2 5.175-6.2h-4l.725-5.675L7.825 13H11.3zM9 15H5.9c-.4 0-.696-.18-.888-.537-.191-.359-.17-.705.063-1.038l7.475-10.75a1.3 1.3 0 0 1 .65-.487 1.22 1.22 0 0 1 .825.012c.283.1.492.275.625.525s.183.517.15.8L14 10h3.875c.433 0 .738.192.913.575.174.383.12.742-.163 1.075L10.4 21.5a1.27 1.27 0 0 1-.675.425 1.132 1.132 0 0 1-.775-.075 1.309 1.309 0 0 1-.588-.538 1.232 1.232 0 0 1-.162-.787z"/></svg>