<svg fill="#178733" xmlns="http://www.w3.org/2000/svg" width="1em" height="1em" viewBox="0 0 24 24" font-size="32px"><path fill-rule="evenodd" d="m4.85 6.778.6-1.329 1.328-.6a.38.38 0 0 0 0-.69l-1.329-.6-.6-1.337a.38.38 0 0 0-.69 0l-.6 1.329-1.337.6a.38.38 0 0 0 0 .69l1.329.6.6 1.337a.386.386 0 0 0 .698 0Zm12.6-1.329-.6 1.329a.386.386 0 0 1-.7 0l-.6-1.336-1.328-.6a.38.38 0 0 1 0-.691l1.337-.6.6-1.329a.38.38 0 0 1 .69 0l.6 1.336 1.329.6a.38.38 0 0 1 0 .691zM21.7 18.9l-2.8 2.8c-.2.2-.442.3-.725.3a.988.988 0 0 1-.725-.3L7.3 11.55c-.2-.2-.3-.442-.3-.725s.1-.525.3-.725l2.8-2.8c.2-.2.442-.3.725-.3s.525.1.725.3L21.7 17.45c.2.2.3.442.3.725s-.1.525-.3.725M12 13.4l6.15 6.2 1.45-1.45L13.4 12zm-6.55 3.05-.6 1.328a.386.386 0 0 1-.7 0l-.6-1.336-1.328-.6a.38.38 0 0 1 0-.691l1.336-.6.6-1.329a.38.38 0 0 1 .691 0l.6 1.337 1.329.6a.38.38 0 0 1 0 .69l-1.329.6Z" clip-rule="evenodd"/></svg>