<svg fill="#178733" xmlns="http://www.w3.org/2000/svg" width="1em" height="1em" viewBox="0 0 24 24" font-size="24px"><path d="M21.875 10.325c.05.283.083.562.1.837.017.275.025.555.025.838a9.733 9.733 0 0 1-.788 3.9 10.092 10.092 0 0 1-2.137 3.175c-.9.9-1.958 1.612-3.175 2.137A9.733 9.733 0 0 1 12 22a9.733 9.733 0 0 1-3.9-.788 10.092 10.092 0 0 1-3.175-2.137c-.9-.9-1.612-1.958-2.137-3.175A9.733 9.733 0 0 1 2 12a9.74 9.74 0 0 1 .788-3.9 10.092 10.092 0 0 1 2.137-3.175c.9-.9 1.958-1.613 3.175-2.138A9.743 9.743 0 0 1 12 2c.85 0 1.671.104 2.463.312a10.67 10.67 0 0 1 2.237.863.87.87 0 0 1 .463.612.888.888 0 0 1-.188.763 1.149 1.149 0 0 1-.65.425.98.98 0 0 1-.75-.1 7.422 7.422 0 0 0-1.712-.65A7.758 7.758 0 0 0 12 4c-2.217 0-4.104.779-5.662 2.337C4.779 7.896 4 9.783 4 12s.78 4.104 2.338 5.663C7.896 19.221 9.783 20 12 20s4.104-.779 5.663-2.337C19.221 16.104 20 14.217 20 12a7.996 7.996 0 0 0-.1-1.275c-.033-.233.004-.45.113-.65.108-.2.262-.358.462-.475a.825.825 0 0 1 .863-.013c.291.159.47.405.537.738M9.9 15.9l-2.875-2.875a.891.891 0 0 1-.262-.688.975.975 0 0 1 .287-.687.948.948 0 0 1 .7-.275.95.95 0 0 1 .7.275l2.15 2.15 9.325-9.35a.894.894 0 0 1 .688-.263.978.978 0 0 1 .687.288.948.948 0 0 1 .275.7.948.948 0 0 1-.275.7L11.3 15.9a.948.948 0 0 1-.7.275.948.948 0 0 1-.7-.275"/></svg>